# xmcd
#
# Track frame offsets:
#	150
#	10945
#	25655
#	37254
#	47417
#	61638
#	76570
#	89474
#	105118
#	117935
#	127978
#	140303
#	151495
#	162827
#	172537
#	185233
#	199997
#	212583
#	225973
#	238555
#
# Disc length: 3354 seconds
#
# Revision: 1
# Processed by: cddbd v1.5.2PL0 Copyright (c) Steve Scherf et al.
# Submitted via: EZCDAudioConverter 4.0.5.1
#
DISCID=e90d1814
DTITLE=Mary Wells - Something New - Motown Lost and Found
DYEAR=2012
DGENRE=R&B
TTITLE0=Back In My Arms
TTITLE1=All I Got
TTITLE2=You Can Dance
TTITLE3=I'm Yours, You're Mine
TTITLE4=Oh Lover
TTITLE5=Let's Talk It Over
TTITLE6=In Case You Need Love
TTITLE7=The Second Time Around
TTITLE8=This Is Something New
TTITLE9=I've Grown Accustomed To His Face
TTITLE10=Again
TTITLE11=Can't Get Out Of This Mood
TTITLE12=The Party's Over
TTITLE13=I Wanna Be Around
TTITLE14=I Remember You
TTITLE15=Teach Me Tonight
TTITLE16=Secret Love
TTITLE17=All I Do Is Dream Of You
TTITLE18=Always
TTITLE19=A Lovely Way To Spend An Evening
EXTD=
EXTT0=
EXTT1=
EXTT2=
EXTT3=
EXTT4=
EXTT5=
EXTT6=
EXTT7=
EXTT8=
EXTT9=
EXTT10=
EXTT11=
EXTT12=
EXTT13=
EXTT14=
EXTT15=
EXTT16=
EXTT17=
EXTT18=
EXTT19=
PLAYORDER=
